<svg id="Layer_1" data-name="Layer 1" xmlns="http://www.w3.org/2000/svg" viewBox="0 0 968 585"><defs><style>.cls-1{font-size:62.3px;font-family:MyriadPro-Regular, Myriad Pro;}.cls-2{font-size:150.86px;}.cls-2,.cls-3{font-family:OpenSans-Bold, Open Sans;font-weight:700;}.cls-3{font-size:280.08px;}</style></defs><path d="M231.13,215.25V289a73.5,73.5,0,0,1-73.49,73.5h-8.25s6.64-31.6-28.62-57S74.75,267,72,254.86c0,0-15.11,93.88,11.91,107.62A73.5,73.5,0,0,1,10.41,289V215.25a73.5,73.5,0,0,1,69.46-73.38c-1.54,7.52-3.82,31.38,22.59,52.09,31.82,25,50.83,37.32,53.57,54.49,0,0,16.72-81.74-8.7-106.69h10.31A73.49,73.49,0,0,1,231.13,215.25Z"/><path d="M84.83,313.48s12.59,32.29,62.5,49C147.33,362.48,100.62,360.42,84.83,313.48Z"/><path d="M144.12,190.76s-12.59-32.29-62.51-49C81.61,141.76,128.32,143.82,144.12,190.76Z"/><path d="M230,97.27a.32.32,0,0,1,.61-.19c3.61,7.93,5.46,16.83,7,25.35,1.37,7.39,3.09,16.23.79,23.58a.41.41,0,0,1-.8-.17,99.92,99.92,0,0,0-2.05-24.26C234.08,113.41,231.39,105.47,230,97.27Z"/><path d="M229.73,97.7c2.14,8.22,3.11,16.72,4.71,25,1.49,7.74,3.36,16.22,1.54,24.06a.27.27,0,0,1-.52,0c-.22-4-.11-8-.53-12S233.75,126.91,233,123c-1.59-8.35-2.46-16.81-3.77-25.21A.25.25,0,0,1,229.73,97.7Z"/><path d="M225.16,120.28c.15-4.48.26-9,.43-13.44.11-3-.11-6,1.31-8.77a.18.18,0,0,1,.32.11,37.77,37.77,0,0,0-.49,7.28,70.6,70.6,0,0,1,.82-8.91.34.34,0,0,1,.68.06c.16,3.82-.12,7.65,0,11.49.12,4.11.3,8.22.4,12.34.21,8.37.93,16.89.34,25.26a.46.46,0,0,1-.9,0c-1-8-.89-16.2-1.11-24.22-.11-3.92-.28-7.82-.29-11.71-.06,3.53-.09,7-.2,10.57-.12,4.18-.23,8.35-.17,12.53.07,4.52,1,9,.7,13.53,0,.56-.93.62-1,.05A188.07,188.07,0,0,1,225.16,120.28Z"/><path d="M222.32,118.62a139.78,139.78,0,0,1,1.42-14.15c.41-2.62.34-6.15,2.42-8.08.29-.27.73.08.61.43-2.33,6.79-2.43,14.81-2.82,21.94-.24,4.51-.57,9-.64,13.54-.07,4.68.47,9.27.8,13.91,0,.5-.71.84-.91.29-1.3-3.76-1.31-7.93-1.41-11.87C221.66,129.29,222,123.94,222.32,118.62Z"/><path d="M227.71,98.9a.19.19,0,0,1,.37,0v0a2.11,2.11,0,0,1,.75-1.49c.26-.19.73.05.57.41-.78,1.68.61,5.4,1,7.14.88,4.46,1.24,9.19,1.82,13.71.62,4.76.78,9.57,1,14.36.24,4.25,1.1,8.88.1,13.07a.5.5,0,0,1-1-.08c-.66-10.16-.92-20.5-2.54-30.56-.66-4.11-.87-8.27-1.44-12.39-.06-.47-.19-1.16-.29-1.91.16,7.14,1.23,14.29,1.66,21.41.45,7.65.9,15.32,1.26,23,0,.39-.58.68-.74.22-1.07-3.16-1.08-6.63-1.27-9.94-.26-4.33-.63-8.64-.86-13C227.73,115,226.41,106.8,227.71,98.9Z"/><path d="M223.87,135.87q.06-6.66.14-13.32c.08-8.13-.24-17.77,2.9-25.42a.25.25,0,0,1,.49.11c-.09,3.63-.82,7.27-1.15,10.9-.37,4-.5,8.07-.58,12.11-.15,8.19-.46,16.42,0,24.6,0,.42-.63.73-.78.24A29.51,29.51,0,0,1,223.87,135.87Z"/><path d="M230.08,97.06c.62,3.56,2.36,6.81,3.35,10.28A102,102,0,0,1,236,119.09c1.25,7.66,3.32,16.28,2.05,24a.28.28,0,0,1-.56,0c-.65-4-.45-8-1.15-12s-1.18-7.88-1.81-11.81A104.68,104.68,0,0,0,232,107.59c-1-3.45-2.65-6.85-2.46-10.51A.28.28,0,0,1,230.08,97.06Z"/><path d="M226,109.3c.41-4,0-8.58,1.83-12.3.15-.3.7-.25.62.14s-.17,1-.25,1.51a9.48,9.48,0,0,1,.38-1s.06-.07.09-.1a5.16,5.16,0,0,1,.16-.52c.12-.27.57-.2.52.11-.35,2.75,1.47,5.62,2.34,8.14a57.83,57.83,0,0,1,2.69,11.31c1.06,8.13,2.24,16.66,1.78,24.87,0,.32-.56.36-.59,0-.65-8.63-1.74-17.2-2.84-25.79a49.24,49.24,0,0,0-2.35-9.5c.86,5.37,1.67,10.75,2.31,16.15.82,6.86,1.86,14.11,1.41,21a.26.26,0,0,1-.51,0c-1.24-13.76-3-27.43-4.57-41.15-.09-.26-.17-.51-.24-.77,0,2.09.34,4.18.36,6.32,0,3.83.43,7.63.59,11.46.32,8,2,16,1.92,23.92,0,.4-.6.39-.68,0-1.87-7.74-2.4-16.13-2.65-24.07-.15-4.32-.39-8.69-.65-13-.06-.9-.1-1.78-.1-2.66-.56,5.8-.52,11.77-.61,17.5-.13,8.51-.35,17.36.72,25.8.06.45-.62.71-.78.25-1.15-3.26-1-6.83-1-10.24-.06-4.53-.36-9-.32-13.57S225.52,113.92,226,109.3Z"/><path d="M225.23,84a.35.35,0,0,1,.68.15,14.14,14.14,0,0,0,.45,4c.08.28.17.57.26.85,0-.29-.08-.58-.11-.85a8.36,8.36,0,0,1,.26-4.33.29.29,0,0,1,.56.12,25,25,0,0,0,.52,4.48c.09.44.21.89.33,1.34-.07-.8-.11-1.62-.19-2.39a14.22,14.22,0,0,1-.05-3.8c.06-.41.7-.49.75,0,.17,1.42.31,2.84.52,4.25v0c.13-4.74.75-9.53,1.21-14.18.3-3.09.66-6.14.81-9.24.12-2.19.29-4.43,1.67-6.21.2-.25.72-.14.64.23-1,5-.89,10.29-1.41,15.36s-.76,10.06-1.11,15.09c.1-.47.22-.94.32-1.4.32-1.46.56-2.93.92-4.37.08-.32.54-.24.59,0a11.38,11.38,0,0,1-.19,4c-.09.57-.16,1.16-.25,1.76a9.91,9.91,0,0,0,.46-1.25c.48-1.65.63-3.38,1.14-5a.37.37,0,0,1,.7.06,17.1,17.1,0,0,1-.37,5.29c-.27,1.44-.69,3.57-2.06,4.36a.63.63,0,0,1-.89-.63,1.66,1.66,0,0,1,.06-.21.48.48,0,0,1-.57-.39,1.64,1.64,0,0,1,0-.22c0,.55-.07,1.12-.12,1.68-.07.81-1.41.92-1.46.06,0-.24,0-.5,0-.75a.47.47,0,0,1-.7-.15c0,.13,0,.27.05.4,0,.64-.92.72-1.17.21a7.79,7.79,0,0,1-.33-.89.52.52,0,0,1-1,.1,12.11,12.11,0,0,1-1-3.68A7.33,7.33,0,0,1,225.23,84Z"/><path d="M230.38,87.88c.11-1.28,0-2.56.06-3.84,0-.38.54-.35.63,0a15,15,0,0,1,.47,4c0,.36,0,.76,0,1.16.18-.46.39-.91.54-1.36a15.89,15.89,0,0,0,.86-4.26c0-.38.65-.43.69,0a10.69,10.69,0,0,1-.2,3.74c-.32,1.29-.61,2.89-1.57,3.85a.39.39,0,0,1-.63-.16,2.3,2.3,0,0,1-.33.62.45.45,0,0,1-.81-.17A12.44,12.44,0,0,1,230.38,87.88Z"/><path d="M226.51,84.77a.46.46,0,0,1,.88.07c.21.85.36,1.72.51,2.58a22.46,22.46,0,0,1,.17-3.17c.05-.38.65-.44.7,0,.16,1.28.31,2.55.47,3.82.15,1.09.75,2.31.55,3.39a.52.52,0,0,1-.92.28,1.91,1.91,0,0,1-.39-.54c0,.11,0,.23,0,.34a.69.69,0,0,1-1.17.2c-.68-1-.67-2.32-.84-3.47A8,8,0,0,1,226.51,84.77Z"/><path d="M230.51,91a12.49,12.49,0,0,0,1-6.89.31.31,0,0,1,.61-.1c.43,2.12.79,5.65-.76,7.43C231,91.83,230.26,91.54,230.51,91Z"/><path d="M228.19,84.74a30.08,30.08,0,0,0,.85,3.49c0-.23,0-.47,0-.7a12,12,0,0,1,.19-3.28c.11-.42.67-.27.76.07a20.61,20.61,0,0,1,.42,3.14,9.6,9.6,0,0,1,.18,2.92.66.66,0,0,1-1.1.43,2.09,2.09,0,0,1-.27.91.58.58,0,0,1-1-.1,14.49,14.49,0,0,1-.42-3.12,24.63,24.63,0,0,1-.42-3.72C227.38,84.31,228.12,84.29,228.19,84.74Z"/><path d="M225.71,91.66c2-1.44,5.39-.4,7.38.48a.31.31,0,0,1,.1.53,2.52,2.52,0,0,1,.78,1.94c0,1.32-.48,3-1.79,3.6-1.5.69-3.09.18-4.57-.32-1.26-.42-2.78-1.29-3-2.73A3.38,3.38,0,0,1,225.71,91.66Z"/><path d="M226.46,91.56c2,.23,4,0,5.81,1.07.44.25,0,.86-.38.74a20.83,20.83,0,0,0-2.09-.4,12.17,12.17,0,0,0,2.29.5.79.79,0,0,1,.07,1.55,3.54,3.54,0,0,1-.91.08c.22.09.43.17.63.27a.84.84,0,0,1-.35,1.62c-.92,0-2.1-.64-3.14-.75a.75.75,0,0,1-.77.63,2,2,0,0,1-1.33-.71.84.84,0,0,1,.3-1.3,1.93,1.93,0,0,1,.4-.15,3,3,0,0,1-.25-.26.82.82,0,0,1,.15-1.16c-.29-.16-.59-.32-.87-.51A.68.68,0,0,1,226.46,91.56Z"/><path d="M226.89,91.88a5.46,5.46,0,0,1,1.91.31,9.11,9.11,0,0,0,3,.38.2.2,0,0,1,.07.39,7.76,7.76,0,0,1-5.06-.63A.25.25,0,0,1,226.89,91.88Z"/><path d="M226.65,93c.94.2,1.79.59,2.76.7a21.14,21.14,0,0,0,2.64,0c.36,0,.32.5,0,.58-1.7.51-4.32.55-5.79-.59A.4.4,0,0,1,226.65,93Z"/><path d="M226.23,94.6c.66-.2,1.5.36,2.14.53a6,6,0,0,0,3.32-.09c.25-.08.58.18.37.44a3.36,3.36,0,0,1-3,.9c-.88-.07-2.73-.3-3.11-1.22A.41.41,0,0,1,226.23,94.6Z"/><path d="M226.44,96.08c.64.28,1.21.66,1.88.89a8.17,8.17,0,0,0,2.46.39c.32,0,.33.51,0,.56-1.51.19-3.69-.06-4.82-1.18A.42.42,0,0,1,226.44,96.08Z"/><path d="M226.69,104.67a.2.2,0,0,1,.39,0c-.39,8.53-.76,17.08-1.24,25.6a.08.08,0,0,1-.15,0A139,139,0,0,1,226.69,104.67Z"/><path d="M230.64,105.62c2.48,10.37,4.79,21.13,4.35,31.84,0,.18-.31.2-.32,0-.59-10.76-2.63-21.18-4.23-31.81A.1.1,0,0,1,230.64,105.62Z"/><path d="M228.76,108.32c1,9,.66,18.11,2.23,27a.14.14,0,0,1-.27.05c-1.81-8.92-1.67-18-2.22-27C228.49,108.2,228.75,108.15,228.76,108.32Z"/><path d="M226.65,94.45a12.21,12.21,0,0,0,3.74,1.1c.09,0,.09.14,0,.15a5.28,5.28,0,0,1-4-.84A.24.24,0,0,1,226.65,94.45Z"/><path d="M227,93.28a4.77,4.77,0,0,0,3.41.54c.07,0,.09.09,0,.12a4.37,4.37,0,0,1-3.6-.42C226.64,93.41,226.81,93.18,227,93.28Z"/><path d="M231.66,86.39c0-.21.31-.17.32,0a7.45,7.45,0,0,1-1.15,4.21c-.1.15-.33,0-.28-.15A16.52,16.52,0,0,0,231.66,86.39Z"/><path d="M229.23,86.23a.2.2,0,0,1,.4,0,11.58,11.58,0,0,1-.18,4.39c0,.17-.35.15-.36,0A24.2,24.2,0,0,1,229.23,86.23Z"/><path d="M227.34,86.38a42,42,0,0,0,.74,4.3c0,.09-.12.13-.15,0a15.42,15.42,0,0,1-.86-4.3C227.06,86.25,227.31,86.2,227.34,86.38Z"/><path d="M241.57,54.31l-107-45.16h0L113.92.45.69,57.69,0,60.34l0,0L0,60.5,34.22,80.22a144.09,144.09,0,0,0,1.56,16.57c1.36-.3,2.72-.58,4.08-.86l1.33-.26,3-.57,1.24-.23c2.81-.5,5.65-1,8.5-1.4,51.35-7.66,107.25-2.55,133,.65h0c9.09,1.13,14.42,2,14.42,2v-16l38.82-23,0,0,0-.07h0Z"/><text class="cls-1" transform="translate(14.88 581.02)">Direct Admission Platform</text><text class="cls-2" transform="translate(14.88 514.08)">ADMISSIONS</text><text class="cls-3" transform="translate(256.95 362.17)">SPOT</text></svg>